<?xml version="1.0" encoding="utf-8"?>
<!-- Generator: Adobe Illustrator 26.0.1, SVG Export Plug-In . SVG Version: 6.00 Build 0)  -->
<svg version="1.1" id="Layer_1" xmlns="http://www.w3.org/2000/svg" xmlns:xlink="http://www.w3.org/1999/xlink" x="0px" y="0px"
	 viewBox="0 0 150 71.8" style="enable-background:new 0 0 150 71.8;" xml:space="preserve">
<style type="text/css">
	.st0{fill-rule:evenodd;clip-rule:evenodd;fill:#F607F7;}
	.st1{fill:#F607F7;}
	.st2{fill:#6E6F72;}
	.st3{fill:#FFFFFF;}
</style>
<g>
	<g>
		<g>
			<g>
				<g>
					<path class="st0" d="M88.3,49.2c-1.9,1.9-2.5,4.2-2.2,6.8c0.7,5.5,6.1,7.9,10.4,6.2c1.7-0.7,2.9-1.9,3.6-3.6
						c0.2-0.6,0-0.9-0.6-0.9c-0.3,0-0.6,0-0.9,0c-0.5,0-0.8,0.2-1,0.6c-0.3,0.7-0.9,1.3-1.6,1.6c-2.4,1.1-5.8,0.4-7-2.8
						c-0.4-1.1-0.1-1.6,1.1-1.6c1.5,0,3.1,0,4.6,0h4.9c0.7,0,1.1-0.3,1.1-1c0-2-0.6-3.8-1.9-5.3C95.8,46.1,90.9,46.6,88.3,49.2
						 M96.8,53.4c-1.1,0-2.2,0-3.3,0l0,0c-1.1,0-2.1,0-3.2,0c-0.1,0-0.3,0-0.4,0c-0.7-0.1-0.9-0.6-0.6-1.2c0.9-1.8,2.4-2.8,4.4-2.8
						c1.8,0,3.3,1.1,4,2.8C97.9,52.9,97.6,53.4,96.8,53.4"/>
					<path class="st0" d="M124,55.6c0.1,0,0.2,0,0.4,0c1.5,0,3,0,4.6,0h4.9c0.7,0,1.1-0.4,1.1-1.1c0-0.4,0-0.8-0.1-1.2
						c-0.4-2.1-1.3-3.9-3.1-5.1c-1.4-1-3-1.3-4.7-1.1c-2.3,0.3-4.2,1.3-5.5,3.3c-1.2,1.8-1.5,3.9-1.2,6c0.3,1.9,1.2,3.5,2.6,4.6
						c2.2,1.7,4.6,2.1,7.3,1.3c1.9-0.6,3.3-1.8,4.1-3.8c0.2-0.6,0-0.9-0.6-0.9c-0.3,0-0.6,0-1,0c-0.5,0-0.8,0.2-1,0.6
						c-0.3,0.7-0.8,1.2-1.5,1.6c-2.4,1.2-6,0.5-7.1-3C122.8,56.1,123.1,55.7,124,55.6 M123.4,52.2c0.8-1.7,2.5-2.9,4.4-2.8
						c1.8,0,3.4,1.1,4,2.8c0.2,0.7-0.1,1.2-0.8,1.2c-1.1,0-2.3,0-3.4,0l0,0c-1.1,0-2.2,0-3.2,0c-0.2,0-0.3,0-0.5,0
						C123.4,53.2,123.2,52.8,123.4,52.2"/>
					<path class="st0" d="M22.7,51.5c-0.3-1.8-1.1-3.2-2.8-3.9c-2.2-0.9-4.4-0.9-6.5,0.2c-1.3,0.7-2.1,1.8-2.4,3.3
						c-0.1,0.5,0.1,0.7,0.6,0.8c0.3,0,0.7,0,1,0c0.5,0,0.7-0.1,0.8-0.6c0.3-0.9,0.9-1.5,1.7-1.8c0.9-0.4,1.7-0.4,2.6-0.2
						c0.6,0.1,1.2,0.3,1.7,0.8c0.6,0.6,0.9,1.3,0.9,2.2v0.1v1.4h-5.1c0,0-5.6-0.1-4.9,4.5c0,0.1,0,0.1,0,0.2
						c0.3,1.5,1.1,2.6,2.4,3.3c2.1,1.2,4.9,1.1,7,0.2c1.7-0.7,2.5-2.2,2.8-3.9c0.1-0.3,0.1-0.6,0.1-0.8c0,0,0.3-1.8,0-4.9
						C22.8,52.1,22.7,51.8,22.7,51.5 M20.4,57.3L20.4,57.3c-0.1,0.9-0.3,1.7-0.9,2.3c-0.5,0.4-1.1,0.7-1.7,0.8
						c-0.9,0.1-1.9,0.2-2.7-0.1c-2.1-0.7-2.3-2.2-2.3-2.2c-0.3-0.8,0.2-2.2,3.2-2.2h4.5C20.3,55.9,20.4,56.4,20.4,57.3"/>
					<path class="st0" d="M40.2,39.7c-0.3,0-0.7,0-1,0c-0.7,0-0.9,0.2-0.9,0.9c0,2.2,0,4.4,0,6.6c0,1.1-0.3,1.3-1.2,0.8
						c-2-1-4-1.2-6.1-0.6c-3.7,1.1-6,4.8-5.4,8.7c0.6,3.6,2.9,6,6.4,6.5c2,0.3,3.9,0,5.6-1.2c0.9-0.7,1.1-0.6,1.5,0.5
						c0.1,0.2,0.2,0.4,0.4,0.5c0.8,0.4,1.4,0,1.4-0.9c0-3.5,0-6.9,0-10.4V40.7c0-0.1,0-0.2,0-0.4C40.9,39.9,40.7,39.7,40.2,39.7
						 M38.2,56.2c0.1,1.2-0.4,2.1-1.3,2.8c-2.7,2.4-7.3,1.5-8.5-2.7c-0.6-2-0.2-3.9,1.3-5.4c1.8-1.9,4.5-2.2,6.7-0.7
						c0.6,0.4,1.1,0.9,1.5,1.5c0.2,0.3,0.3,0.8,0.3,1.3c0.1,0.6,0,1.2,0,1.8C38.2,55.3,38.2,55.7,38.2,56.2"/>
					<path class="st0" d="M83.1,51.2c-0.4-1.8-1.3-3.1-3-3.7c-1.3-0.4-2.7-0.3-4,0.1c-1.2,0.3-2.2,0.9-3.3,1.6
						c-0.5,0.4-0.8,0.3-1.2-0.2c-0.9-1.2-2.1-1.7-3.5-1.7c-1.9-0.1-3.6,0.5-5.2,1.5c-0.2,0.1-0.4,0.2-0.6,0.3L62,49.4L61.9,48
						c0-0.4-1.1-0.5-1.9-0.4c-0.4,0.1-0.6,0.3-0.6,0.9c0,1.7,0,3.5,0,5.2h-3.1c0-0.4,0-0.9-0.1-1.4c0-0.3-0.1-0.6-0.1-0.8
						c-0.3-1.8-1.1-3.2-2.8-3.9c-2.2-0.9-4.4-0.9-6.5,0.2c-1.3,0.7-2.1,1.8-2.4,3.3c-0.1,0.5,0.1,0.7,0.6,0.8c0.3,0,0.7,0,1,0
						c0.5,0,0.7-0.1,0.8-0.6c0.3-0.9,0.9-1.5,1.7-1.8c0.9-0.4,1.7-0.4,2.6-0.2c0.6,0.1,1.2,0.3,1.7,0.8c0.6,0.6,0.9,1.3,0.9,2.2v0.1
						v1.4h-3.6h-1.5c0,0-5.6-0.1-4.9,4.5c0,0.1,0,0.1,0,0.2c0.3,1.5,1.1,2.6,2.4,3.3c2.1,1.2,4.9,1.1,7,0.2c1.7-0.7,2.5-2.2,2.8-3.9
						c0-0.3,0.1-0.6,0.1-0.8c0,0,0.1-0.5,0.1-1.5h3.1v4.1c0,0.7,0,1.4,0,2.1c0,0.6,0.2,0.8,0.8,0.8c0.2,0,0.5,0,0.7,0
						c1,0,1.1-0.1,1.1-1.2c0-2.9,0-5.8,0-8.7c0-0.7,0.2-1.2,0.8-1.5c0.3-0.2,0.6-0.4,0.9-0.5c1.2-0.6,2.4-1.1,3.7-1.1
						c1.3,0,2.2,0.7,2.5,2c0.1,0.5,0.2,1.1,0.2,1.7c0,2.8,0,5.6,0,8.5c0,0.7,0.2,0.9,0.9,0.9c0.3,0,0.6,0,1,0c0.5,0,0.7-0.2,0.7-0.8
						c0-3.1,0-6.2,0-9.4c0-0.5,0.2-0.8,0.5-1.1c1.3-0.9,2.6-1.6,4.1-1.8c2-0.3,3.4,0.9,3.5,3.1c0.1,1.1,0,2.2,0,3.3
						c0,1.9,0,3.8,0,5.7c0,0.6,0.2,0.8,0.8,0.9c0.3,0,0.5,0,0.8,0c0.7,0,0.9-0.2,0.9-1c0-2.8,0-5.7,0-8.5
						C83.3,52.6,83.2,51.9,83.1,51.2 M53.8,57.3L53.8,57.3c-0.1,0.9-0.3,1.7-0.9,2.3c-0.5,0.4-1.1,0.7-1.7,0.8
						c-0.9,0.1-1.9,0.2-2.7-0.1c-2.1-0.7-2.3-2.2-2.3-2.2c-0.3-0.8,0.2-2.2,3.2-2.2h4.5C53.8,55.9,53.9,56.4,53.8,57.3"/>
					<path class="st0" d="M117.2,47.7c-0.3,0-0.7,0-1,0c-0.7,0-0.9,0.1-1.1,0.8c-1.4,3.6-2.7,7.2-4.1,10.8c-0.1,0.1-0.1,0.3-0.2,0.4
						c-0.2,0.3-0.4,0.3-0.6,0c-0.1-0.1-0.1-0.2-0.2-0.4c-1.3-3.4-2.5-6.9-3.8-10.3c-0.5-1.4-0.5-1.4-1.9-1.4c-0.2,0-0.4,0-0.7,0
						c-0.8,0-1,0.3-0.7,1c0.9,2.1,1.8,4.2,2.7,6.3c1,2.3,2,4.7,2.9,7c0.2,0.6,0.6,0.9,1.2,0.8c0.3,0,0.7,0,1,0c0.9,0,1.1-0.1,1.5-1
						c0.8-2,1.7-4,2.5-5.9c1-2.4,2-4.8,3-7.2C118.2,47.9,118,47.7,117.2,47.7"/>
				</g>
				<g>
					<path class="st1" d="M137.3,42.2c-1.9,0-3.5,1.5-3.5,3.4s1.5,3.4,3.4,3.4c1.8,0,3.4-1.4,3.4-3.3
						C140.7,43.8,139.2,42.2,137.3,42.2z M137.2,48.6c-1.7,0-3-1.4-3-3c0-1.7,1.4-3.1,3-3.1c1.7,0,3,1.4,3.1,3.1
						C140.3,47.3,138.9,48.6,137.2,48.6z"/>
					<path class="st1" d="M138.3,46c-0.2-0.4-0.3-1-0.4-1.5h-0.6c0,0.8,0,1.5,0,2.2c0.1,0,0.3,0,0.4,0c0-0.5,0-1.1,0-1.6
						c0.1,0.5,0.3,1.1,0.5,1.6h0.4c0.1-0.5,0.3-1.1,0.5-1.6c0,0.5,0,1.1,0,1.6c0.1,0,0.3,0,0.4,0c0-0.7,0-1.5,0-2.2
						c-0.2,0-0.4,0-0.7,0C138.5,45,138.4,45.5,138.3,46z"/>
					<path class="st1" d="M135,44.9c0.2,0,0.4,0,0.6,0c0,0.6,0,1.2,0,1.8c0.2,0,0.3,0,0.4,0c0-0.6,0-1.2,0-1.8c0.2,0,0.4,0,0.6,0
						c0-0.1,0-0.2,0-0.4c-0.6,0-1.2,0-1.7,0C135,44.7,135,44.8,135,44.9z"/>
				</g>
			</g>
		</g>
	</g>
	<g>
		<g>
			<g>
				<path class="st2" d="M48,43.7L48,43.7l-0.5,0.1l-0.1-0.1l-1.2-2.5v-0.4l0.1-0.1h0.4l0.1,0.1l0.9,2.1h0.1l0.9-2.1l0.1-0.1h0.4
					l0.1,0.1v0.4L48,43.7z"/>
				<path class="st2" d="M52.6,43.8h-2.8l-0.1-0.1v-0.4l0.1-0.1H51l0.1-0.1v-1.8L51,41.2h-0.9H50v-0.4l0.1-0.1h1.5l0.1,0.1v2.4
					l0.1,0.1h0.9l0.1,0.1L52.6,43.8L52.6,43.8z M51.6,40.3h-0.7l-0.1-0.1v-0.6l0.1-0.1h0.7l0.1,0.1L51.6,40.3L51.6,40.3z"/>
				<path class="st2" d="M55.9,41.9L55.9,41.9L55.4,42l-0.1-0.1c0-0.4-0.2-0.6-0.7-0.6s-0.9,0.2-0.9,1v1.5l-0.1,0.1h-0.5L53,43.8
					v-2.9l0.1-0.1h0.4l0.1,0.1l0.1,0.2h0.1c0,0,0.2-0.4,0.9-0.4C55.3,40.7,55.9,41,55.9,41.9z"/>
				<path class="st2" d="M56.9,41.4L56.9,41.4l-0.5-0.1l-0.1-0.1v-0.4l0.1-0.1h0.5l0.1-0.1v-0.8l0.1-0.1h0.5l0.1,0.1v0.8l0.1,0.1h1
					l0.1,0.1v0.4l-0.1,0.1h-1l-0.1,0.1v1.2c0,0.6,0.3,0.7,0.6,0.7c0.2,0,0.5-0.1,0.5-0.5v-0.1l0.1-0.1h0.5l0.1,0.1v0.1
					c0,0.9-0.7,1.1-1.2,1.1c-0.7,0-1.2-0.4-1.2-1.3v-1.2H56.9z"/>
				<path class="st2" d="M62.3,43.8h-0.4l-0.1-0.1l-0.1-0.2h-0.1c0,0-0.2,0.4-0.8,0.4c-0.9,0-1.2-0.6-1.2-1.3v-1.8l0.1-0.1h0.5
					l0.1,0.1v1.8c0,0.4,0.2,0.7,0.7,0.7c0.4,0,0.8-0.3,0.8-1v-1.5l0.1-0.1h0.5l0.1,0.1L62.3,43.8L62.3,43.8z"/>
				<path class="st2" d="M65.7,43.8h-0.4l-0.1-0.1l-0.1-0.2H65c0,0-0.2,0.4-0.9,0.4c-0.7,0-1.1-0.3-1.1-1s0.6-1,1.4-1
					c0.4,0,0.6,0.1,0.6,0.1l0.1-0.1v-0.1c0-0.4-0.2-0.5-0.7-0.5c-0.4,0-0.7,0.1-0.7,0.4l-0.1,0.1h-0.5L63,41.7
					c0-0.5,0.4-0.9,1.3-0.9s1.3,0.4,1.3,1.3L65.7,43.8L65.7,43.8z M65.1,42.5L65.1,42.5c-0.1-0.1-0.2-0.1-0.6-0.1
					c-0.5,0-0.9,0.1-0.9,0.5s0.2,0.4,0.6,0.4c0.5,0,0.9-0.3,0.9-0.6V42.5z"/>
				<path class="st2" d="M69.3,43.8h-2.8l-0.1-0.1v-0.4l0.1-0.1h1.2l0.1-0.1v-3L67.7,40h-0.9h-0.1v-0.4l0.1-0.1h1.5l0.1,0.1v3.6
					l0.1,0.1h0.9l0.1,0.1L69.3,43.8L69.3,43.8z"/>
				<path class="st2" d="M74.3,41.3H73v0.1v2.4l-0.1,0.1h-0.5l-0.1-0.1v-2.4l-0.1-0.1h-0.8l-0.1-0.1v-0.4l0.1-0.1h0.8l0.1-0.1v-0.4
					c0-0.5,0.4-0.8,0.9-0.8H74l0.1,0.1V40L74,40.1h-0.7c-0.1,0-0.2,0.1-0.2,0.2v0.4l0.1,0.1h1.2l0.1,0.1L74.3,41.3L74.3,41.3z"/>
				<path class="st2" d="M77.5,43.8h-0.4L77,43.7l-0.1-0.2h-0.1c0,0-0.2,0.4-0.9,0.4c-0.7,0-1.1-0.3-1.1-1s0.6-1,1.4-1
					c0.4,0,0.6,0.1,0.6,0.1l0.1-0.1v-0.1c0-0.4-0.2-0.5-0.7-0.5c-0.4,0-0.7,0.1-0.7,0.4l-0.1,0.1H75v-0.2c0-0.5,0.4-0.9,1.3-0.9
					s1.3,0.4,1.3,1.3L77.5,43.8L77.5,43.8z M76.9,42.5L76.9,42.5c-0.1-0.1-0.2-0.1-0.6-0.1c-0.5,0-0.9,0.1-0.9,0.5s0.2,0.4,0.6,0.4
					c0.5,0,0.9-0.3,0.9-0.6V42.5z"/>
				<path class="st2" d="M78.3,41.6c0-0.5,0.5-0.9,1.3-0.9c0.7,0,1.3,0.2,1.3,0.9l-0.1,0.1h-0.5l-0.1-0.1c0-0.2-0.2-0.4-0.7-0.4
					s-0.7,0.1-0.7,0.3c0,0.3,0.2,0.4,0.9,0.4c0.6,0.1,1.2,0.2,1.2,0.9c0,0.6-0.5,1-1.3,1s-1.3-0.4-1.3-1l0.1-0.1h0.5l0.1,0.1
					c0,0.3,0.2,0.5,0.7,0.5s0.7-0.1,0.7-0.4c0-0.3-0.2-0.4-0.9-0.4C78.8,42.4,78.3,42.2,78.3,41.6z"/>
				<path class="st2" d="M84.2,43.8h-0.5l-0.1-0.1V42c0-0.4-0.2-0.7-0.7-0.7s-0.9,0.2-0.9,1v1.5l-0.1,0.1h-0.5l-0.1-0.1v-4.1
					l0.1-0.1h0.5l0.1,0.1v1.5h0.1c0,0,0.2-0.4,0.9-0.4c0.9,0,1.2,0.6,1.2,1.3V43.8L84.2,43.8z"/>
				<path class="st2" d="M87.8,43.8H85l-0.1-0.1v-0.4l0.1-0.1h1.2l0.1-0.1v-1.8l-0.1-0.1h-0.9l-0.1-0.1v-0.4l0.1-0.1h1.5l0.1,0.1
					v2.4l0.1,0.1h0.9l0.1,0.1L87.8,43.8L87.8,43.8z M86.8,40.3h-0.7L86,40.2v-0.6l0.1-0.1h0.7l0.1,0.1L86.8,40.3L86.8,40.3z"/>
				<path class="st2" d="M89.6,43.9c-0.9,0-1.5-0.6-1.5-1.6s0.6-1.6,1.5-1.6h0.1c0.9,0,1.5,0.6,1.5,1.6
					C91.2,43.3,90.5,43.9,89.6,43.9L89.6,43.9z M89.6,43.3c0.5,0,0.9-0.4,0.9-1c0-0.7-0.4-1-0.9-1h-0.1c-0.5,0-0.9,0.4-0.9,1
					C88.7,42.9,89,43.3,89.6,43.3L89.6,43.3z"/>
				<path class="st2" d="M94.3,43.8h-0.5l-0.1-0.1V42c0-0.3-0.1-0.7-0.7-0.7s-0.9,0.3-0.9,1v1.5L92,43.9h-0.5l-0.1-0.1v-2.9l0.1-0.1
					h0.4l0.1,0.1l0.1,0.2h0.1c0,0,0.2-0.4,0.9-0.4c0.9,0,1.2,0.5,1.2,1.3L94.3,43.8L94.3,43.8z"/>
				<path class="st2" d="M99.5,43.8h-2.8l-0.1-0.1v-0.4l0.1-0.1h1.2l0.1-0.1v-3L97.9,40H97l0,0v-0.4l0.1-0.1h1.5l0.1,0.1v3.6
					l0.1,0.1h0.9l0.1,0.1L99.5,43.8L99.5,43.8z"/>
				<path class="st2" d="M102.6,43.8h-0.4l-0.1-0.1l-0.1-0.2l0,0c0,0-0.2,0.4-0.9,0.4c-0.7,0-1.1-0.3-1.1-1s0.6-1,1.4-1
					c0.4,0,0.6,0.1,0.6,0.1l0.1-0.1v-0.1c0-0.4-0.2-0.5-0.7-0.5c-0.4,0-0.7,0.1-0.7,0.4l-0.1,0.1h-0.5l-0.1-0.1
					c0-0.5,0.4-0.9,1.3-0.9s1.3,0.4,1.3,1.3L102.6,43.8L102.6,43.8z M102.1,42.5L102.1,42.5c-0.1-0.1-0.2-0.1-0.6-0.1
					c-0.5,0-0.9,0.1-0.9,0.5s0.2,0.4,0.6,0.4c0.5,0,0.9-0.3,0.9-0.6V42.5z"/>
				<path class="st2" d="M105,43.9c-0.6,0-0.9-0.4-0.9-0.4H104l-0.1,0.2l-0.1,0.1h-0.4l-0.1-0.1v-4.1l0.1-0.1h0.5l0.1,0.1v1.5h0.1
					c0,0,0.2-0.4,0.9-0.4c0.9,0,1.3,0.6,1.3,1.6C106.3,43.2,105.8,43.9,105,43.9z M104.9,41.2c-0.5,0-0.9,0.3-0.9,1s0.4,1,0.9,1
					s0.8-0.4,0.8-1C105.7,41.6,105.4,41.2,104.9,41.2z"/>
			</g>
		</g>
	</g>
</g>
<g>
	<g>
		<path class="st1" d="M14.8,23.5h-0.5v-5.1h3.1v0.5h-2.6v1.8h2.4v0.5h-2.4C14.8,21.2,14.8,23.5,14.8,23.5z"/>
		<path class="st1" d="M25.2,20.9c0,0.4-0.1,0.7-0.2,1.1c-0.1,0.4-0.3,0.6-0.6,0.8c-0.2,0.2-0.5,0.4-0.8,0.6s-0.7,0.2-1.1,0.2
			s-0.7-0.1-1.1-0.2c-0.4-0.1-0.6-0.3-0.8-0.6c-0.2-0.2-0.4-0.5-0.6-0.8c-0.1-0.3-0.2-0.7-0.2-1.1c0-0.4,0.1-0.7,0.2-1.1
			c0.1-0.3,0.3-0.6,0.6-0.8c0.3-0.2,0.5-0.4,0.8-0.6s0.7-0.2,1.1-0.2s0.7,0.1,1.1,0.2c0.4,0.1,0.6,0.3,0.8,0.6
			c0.2,0.3,0.4,0.5,0.6,0.8C25.2,20.1,25.2,20.5,25.2,20.9z M24.6,20.9c0-0.3,0-0.6-0.1-0.9s-0.2-0.5-0.4-0.7
			c-0.2-0.2-0.4-0.4-0.7-0.5c-0.3-0.1-0.6-0.2-0.9-0.2s-0.6,0.1-0.9,0.2s-0.5,0.3-0.7,0.5c-0.2,0.2-0.3,0.4-0.4,0.7
			c-0.1,0.3-0.1,0.6-0.1,0.9s0,0.6,0.1,0.9c0.1,0.3,0.2,0.5,0.4,0.7c0.2,0.2,0.4,0.4,0.7,0.5c0.3,0.1,0.6,0.2,0.9,0.2
			s0.6-0.1,0.9-0.2c0.3-0.1,0.5-0.3,0.7-0.5c0.2-0.2,0.3-0.4,0.4-0.7C24.6,21.5,24.6,21.2,24.6,20.9z"/>
		<path class="st1" d="M28.5,23h2.4v0.5H28v-5.1h0.5V23z"/>
		<path class="st1" d="M33.9,23h2.4v0.5h-2.9v-5.1h0.5V23z"/>
		<path class="st1" d="M43.7,20.9c0,0.4-0.1,0.7-0.2,1.1c-0.1,0.4-0.3,0.6-0.6,0.8c-0.2,0.2-0.5,0.4-0.8,0.6s-0.7,0.2-1.1,0.2
			s-0.7-0.1-1.1-0.2c-0.4-0.1-0.6-0.3-0.8-0.6c-0.2-0.2-0.4-0.5-0.6-0.8c-0.1-0.3-0.2-0.7-0.2-1.1c0-0.4,0.1-0.7,0.2-1.1
			c0.1-0.3,0.3-0.6,0.6-0.8c0.3-0.2,0.5-0.4,0.8-0.6s0.7-0.2,1.1-0.2s0.7,0.1,1.1,0.2c0.4,0.1,0.6,0.3,0.8,0.6
			c0.2,0.3,0.4,0.5,0.6,0.8C43.7,20.1,43.7,20.5,43.7,20.9z M43.1,20.9c0-0.3,0-0.6-0.1-0.9s-0.2-0.5-0.4-0.7
			c-0.2-0.2-0.4-0.4-0.7-0.5s-0.6-0.2-0.9-0.2s-0.6,0.1-0.9,0.2c-0.3,0.1-0.5,0.3-0.7,0.5c-0.2,0.2-0.3,0.4-0.4,0.7
			c-0.1,0.3-0.1,0.6-0.1,0.9s0,0.6,0.1,0.9c0.1,0.3,0.2,0.5,0.4,0.7c0.2,0.2,0.4,0.4,0.7,0.5s0.6,0.2,0.9,0.2c0.3,0,0.6-0.1,0.9-0.2
			c0.3-0.1,0.5-0.3,0.7-0.5c0.2-0.2,0.3-0.4,0.4-0.7C43.1,21.5,43.1,21.2,43.1,20.9z"/>
		<path class="st1" d="M47.7,22.8L47.7,22.8l1.3-4.4h0.6l1.3,4.4l0,0l1.2-4.4h0.5l-1.5,5.1h-0.6l-1.3-4.4l0,0L48,23.5h-0.6l-1.5-5.1
			h0.5L47.7,22.8z"/>
		<path class="st1" d="M63.8,20.9c0,0.4-0.1,0.7-0.2,1.1c-0.1,0.4-0.3,0.6-0.6,0.8c-0.2,0.2-0.5,0.4-0.8,0.6s-0.7,0.2-1.1,0.2
			s-0.7-0.1-1.1-0.2c-0.4-0.1-0.6-0.3-0.8-0.6c-0.2-0.2-0.4-0.5-0.6-0.8c-0.1-0.3-0.2-0.7-0.2-1.1c0-0.4,0.1-0.7,0.2-1.1
			c0.1-0.3,0.3-0.6,0.6-0.8c0.3-0.2,0.5-0.4,0.8-0.6s0.7-0.2,1.1-0.2s0.7,0.1,1.1,0.2c0.4,0.1,0.6,0.4,0.8,0.6
			c0.2,0.2,0.4,0.5,0.6,0.8C63.8,20.1,63.8,20.5,63.8,20.9z M63.2,20.9c0-0.3,0-0.6-0.1-0.9s-0.2-0.5-0.4-0.7
			c-0.2-0.2-0.4-0.4-0.7-0.5c-0.3-0.1-0.6-0.2-0.9-0.2c-0.3,0-0.6,0.1-0.9,0.2c-0.3,0.1-0.5,0.3-0.7,0.5c-0.2,0.2-0.3,0.4-0.4,0.7
			C59,20.4,59,20.6,59,20.9s0,0.6,0.1,0.9c0.1,0.3,0.2,0.5,0.4,0.7c0.2,0.2,0.4,0.4,0.7,0.5s0.6,0.2,0.9,0.2c0.3,0,0.6-0.1,0.9-0.2
			c0.3-0.1,0.5-0.3,0.7-0.5c0.2-0.2,0.3-0.4,0.4-0.7C63.2,21.5,63.2,21.2,63.2,20.9z"/>
		<path class="st1" d="M68.5,23.6c-0.4,0-0.7-0.1-0.9-0.2c-0.2-0.1-0.4-0.3-0.6-0.5c-0.1-0.2-0.2-0.4-0.3-0.7
			c-0.1-0.2-0.1-0.5-0.1-0.7v-3.1h0.5v3.2c0,0.2,0,0.4,0.1,0.6s0.1,0.4,0.2,0.5s0.3,0.3,0.4,0.4c0.2,0.1,0.4,0.1,0.7,0.1
			c0.3,0,0.5,0,0.7-0.1s0.3-0.2,0.4-0.4c0.1-0.2,0.2-0.3,0.2-0.5c0-0.2,0.1-0.4,0.1-0.6v-3.2h0.5v3.2c0,0.2,0,0.4-0.1,0.7
			c-0.1,0.2-0.2,0.5-0.3,0.7c-0.1,0.2-0.3,0.4-0.6,0.5C69.2,23.6,68.8,23.6,68.5,23.6z"/>
		<path class="st1" d="M74,23.5h-0.5v-5.1H75c0.2,0,0.5,0,0.7,0.1s0.4,0.1,0.6,0.2c0.2,0.1,0.3,0.2,0.4,0.4c0.1,0.2,0.1,0.4,0.1,0.6
			c0,0.2,0,0.4-0.1,0.5c-0.1,0.2-0.2,0.3-0.3,0.4c-0.1,0.1-0.3,0.2-0.4,0.3S75.7,21,75.5,21l1.5,2.4h-0.6L75,21h-1V23.5z M74,20.7
			h0.9c0.4,0,0.7-0.1,1-0.2c0.3-0.1,0.3-0.4,0.3-0.7c0-0.2,0-0.3-0.1-0.4c-0.1-0.1-0.1-0.2-0.3-0.3c-0.1-0.1-0.2-0.1-0.4-0.2
			c-0.2-0.1-0.3-0.1-0.5-0.1H74V20.7z"/>
		<path class="st1" d="M85.5,19.2c-0.1-0.2-0.3-0.3-0.4-0.4c-0.2-0.1-0.4-0.1-0.6-0.1c-0.1,0-0.3,0-0.4,0.1c-0.1,0-0.2,0.1-0.4,0.2
			c-0.1,0.1-0.2,0.2-0.3,0.3c-0.1,0.1-0.1,0.3-0.1,0.4c0,0.1,0,0.3,0.1,0.4c0.1,0.1,0.1,0.2,0.2,0.3s0.2,0.1,0.4,0.2
			c0.1,0,0.3,0.1,0.4,0.1c0.2,0.1,0.4,0.1,0.5,0.2c0.2,0.1,0.3,0.2,0.5,0.3c0.1,0.1,0.3,0.2,0.4,0.4c0.1,0.2,0.1,0.4,0.1,0.6
			s0,0.5-0.1,0.7c-0.1,0.2-0.2,0.3-0.4,0.5c-0.2,0.1-0.3,0.2-0.5,0.3s-0.4,0.1-0.6,0.1s-0.3,0-0.5,0s-0.3-0.1-0.4-0.1
			c-0.1-0.1-0.3-0.1-0.4-0.2s-0.2-0.2-0.3-0.3l0.4-0.3c0.1,0.2,0.3,0.3,0.5,0.5c0.2,0.1,0.4,0.2,0.7,0.2c0.1,0,0.3,0,0.4-0.1
			s0.3-0.1,0.4-0.2s0.2-0.2,0.3-0.3c0.1-0.1,0.1-0.3,0.1-0.4c0-0.2,0-0.3-0.1-0.4c-0.1-0.1-0.2-0.2-0.3-0.3
			c-0.1-0.1-0.2-0.1-0.4-0.2c-0.2-0.1-0.3-0.1-0.5-0.2s-0.3-0.1-0.5-0.2c-0.2-0.1-0.3-0.2-0.4-0.3s-0.2-0.2-0.3-0.4
			c-0.1-0.2-0.1-0.4-0.1-0.6c0-0.2,0-0.5,0.1-0.6s0.2-0.3,0.4-0.4c0.2-0.1,0.3-0.2,0.5-0.3s0.4-0.1,0.6-0.1c0.3,0,0.6,0.1,0.9,0.2
			c0.3,0.1,0.4,0.3,0.6,0.4L85.5,19.2z"/>
		<path class="st1" d="M93.9,20.9c0,0.4-0.1,0.7-0.2,1.1c-0.1,0.4-0.3,0.6-0.6,0.8c-0.2,0.2-0.5,0.4-0.8,0.6s-0.7,0.2-1.1,0.2
			s-0.7-0.1-1.1-0.2c-0.4-0.1-0.6-0.3-0.8-0.6c-0.2-0.2-0.4-0.5-0.6-0.8c-0.1-0.3-0.2-0.7-0.2-1.1c0-0.4,0.1-0.7,0.2-1.1
			c0.1-0.3,0.3-0.6,0.6-0.8c0.3-0.2,0.5-0.4,0.8-0.6s0.7-0.2,1.1-0.2s0.7,0.1,1.1,0.2c0.4,0.1,0.6,0.3,0.8,0.6
			c0.2,0.3,0.4,0.5,0.6,0.8C93.9,20.1,93.9,20.5,93.9,20.9z M93.4,20.9c0-0.3,0-0.6-0.1-0.9s-0.2-0.5-0.4-0.7
			c-0.2-0.2-0.4-0.4-0.7-0.5c-0.3-0.1-0.6-0.2-0.9-0.2s-0.6,0.1-0.9,0.2s-0.5,0.3-0.7,0.5c-0.2,0.2-0.3,0.4-0.4,0.7
			c-0.1,0.3-0.1,0.6-0.1,0.9s0,0.6,0.1,0.9c0.1,0.3,0.2,0.5,0.4,0.7c0.2,0.2,0.4,0.4,0.7,0.5c0.3,0.1,0.6,0.2,0.9,0.2
			s0.6-0.1,0.9-0.2c0.3-0.1,0.5-0.3,0.7-0.5c0.2-0.2,0.3-0.4,0.4-0.7C93.3,21.5,93.4,21.2,93.4,20.9z"/>
		<path class="st1" d="M101,22.7c-0.1,0.1-0.2,0.3-0.3,0.4c-0.1,0.1-0.3,0.2-0.4,0.3c-0.2,0.1-0.3,0.2-0.5,0.2
			c-0.2,0.1-0.4,0.1-0.6,0.1c-0.4,0-0.7-0.1-1.1-0.2c-0.3-0.1-0.6-0.3-0.8-0.6c-0.2-0.2-0.4-0.5-0.6-0.8c-0.2-0.3-0.2-0.7-0.2-1.1
			s0.1-0.7,0.2-1.1c0.1-0.3,0.3-0.6,0.6-0.8c0.3-0.2,0.5-0.4,0.8-0.6s0.7-0.2,1.1-0.2c0.2,0,0.4,0,0.6,0.1s0.4,0.1,0.5,0.2
			c0.2,0.1,0.3,0.2,0.4,0.3s0.2,0.2,0.3,0.3l-0.4,0.3c-0.1-0.1-0.1-0.2-0.2-0.2c-0.1-0.1-0.2-0.2-0.3-0.2c-0.1-0.1-0.3-0.1-0.4-0.2
			c-0.1,0-0.3-0.1-0.5-0.1c-0.3,0-0.6,0.1-0.9,0.2s-0.5,0.3-0.7,0.5c-0.2,0.2-0.3,0.4-0.4,0.7c-0.1,0.3-0.2,0.4-0.2,0.7
			c0,0.3,0,0.6,0.1,0.9c0.1,0.3,0.2,0.5,0.4,0.7c0.2,0.2,0.4,0.4,0.7,0.5s0.6,0.2,0.9,0.2s0.6-0.1,0.8-0.2c0.3-0.1,0.5-0.3,0.7-0.6
			L101,22.7z"/>
		<path class="st1" d="M104.2,23.5h-0.5v-5.1h0.5V23.5z"/>
		<path class="st1" d="M107.2,23.5h-0.6l2.2-5.1h0.5l2.2,5.1H111l-0.6-1.3h-2.6L107.2,23.5z M108,21.7h2.3l-1.1-2.7L108,21.7z"/>
		<path class="st1" d="M114.6,23h2.4v0.5h-2.9v-5.1h0.5V23z"/>
		<path class="st1" d="M123.4,23h2.4v0.5h-2.9v-5.1h0.5V23z"/>
		<path class="st1" d="M128.8,23.5h-0.5v-5.1h0.5V23.5z"/>
		<path class="st1" d="M132.4,23.5h-0.5v-5.1h3.1v0.5h-2.6v1.8h2.4v0.5h-2.4V23.5z"/>
		<path class="st1" d="M138.2,23h2.7v0.5h-3.3v-5.1h3.2v0.5h-2.7v1.8h2.5v0.5h-2.5V23H138.2z"/>
	</g>
</g>
<g>
	<g>
		<path class="st1" d="M140.7,70.9H9.6c-0.1,0-9.4-0.4-9.4-9.4v-43c0-3,2-8.5,9-8.5h130.1c0.2,0,4.4-0.3,7.5,2.5
			c1.9,1.8,2.9,4.4,2.9,7.9v41.4c0,0.1,0.3,3.8-2.1,6.5C146,70,143.7,70.9,140.7,70.9z M139.7,10.5c-0.2,0-0.4,0-0.4,0L9.2,10.6
			c-8.2,0-8.4,7.6-8.4,7.9v43c0,8.4,8.4,8.8,8.8,8.8h131c2.9,0,5-0.8,6.5-2.4c2.3-2.5,2-6,2-6.1V20.4c0-3.2-0.9-5.7-2.7-7.4
			C144,10.7,140.8,10.5,139.7,10.5z"/>
	</g>
	<g>
		<rect x="0.5" y="31.4" class="st1" width="149.2" height="0.6"/>
	</g>
</g>
<g>
	<path class="st3" d="M11.7,6h2.7v0.5h-3.3V1.3h3.2v0.5h-2.7v1.8h2.5V4h-2.5V6z"/>
	<path class="st3" d="M18.8,3.4l1.4-2.1h0.6l-1.7,2.4L21,6.4h-0.7l-1.6-2.3l-1.6,2.3h-0.7l1.9-2.7l-1.7-2.4h0.7L18.8,3.4z"/>
	<path class="st3" d="M23.6,1.3H25c0.3,0,0.5,0,0.7,0.1c0.2,0.1,0.4,0.1,0.5,0.3c0.2,0.1,0.3,0.3,0.4,0.4c0.1,0.2,0.1,0.4,0.1,0.6
		c0,0.2,0,0.4-0.1,0.6c-0.1,0.2-0.2,0.3-0.4,0.4c-0.2,0.1-0.3,0.2-0.5,0.3C25.5,4,25.3,4,25,4h-0.9v2.4h-0.5V1.3z M24.1,3.6H25
		c0.4,0,0.7-0.1,0.9-0.2c0.2-0.2,0.3-0.4,0.3-0.7c0-0.3-0.1-0.6-0.3-0.7c-0.2-0.1-0.5-0.2-0.9-0.2h-0.9V3.6z"/>
	<path class="st3" d="M30,6h2.4v0.5h-2.9V1.3H30V6z"/>
	<path class="st3" d="M39.8,3.9c0,0.4-0.1,0.7-0.2,1.1S39.3,5.5,39,5.8c-0.2,0.2-0.5,0.4-0.8,0.6s-0.7,0.2-1.1,0.2s-0.7-0.1-1.1-0.2
		S35.4,6,35.2,5.8c-0.2-0.2-0.4-0.5-0.6-0.8c-0.1-0.3-0.2-0.7-0.2-1.1c0-0.4,0.1-0.7,0.2-1.1c0.1-0.3,0.3-0.6,0.6-0.8
		s0.5-0.4,0.8-0.6s0.7-0.2,1.1-0.2s0.7,0.1,1.1,0.2s0.6,0.3,0.8,0.6s0.4,0.5,0.6,0.8S39.8,3.5,39.8,3.9z M39.2,3.9
		c0-0.3,0-0.6-0.1-0.9c-0.1-0.3-0.2-0.5-0.4-0.7c-0.2-0.2-0.4-0.4-0.7-0.5c-0.3-0.1-0.6-0.2-0.9-0.2c-0.3,0-0.6,0.1-0.9,0.2
		c-0.3,0.1-0.5,0.3-0.7,0.5c-0.2,0.2-0.3,0.4-0.4,0.7C35,3.3,35,3.6,35,3.9s0,0.6,0.1,0.9c0.1,0.3,0.2,0.5,0.4,0.7
		c0.2,0.2,0.4,0.4,0.7,0.5c0.3,0.1,0.6,0.2,0.9,0.2c0.3,0,0.6-0.1,0.9-0.2s0.5-0.3,0.7-0.5C38.9,5.2,39,5,39.1,4.7
		C39.2,4.4,39.2,4.2,39.2,3.9z"/>
	<path class="st3" d="M43.1,6.4h-0.5V1.3h1.5c0.2,0,0.5,0,0.7,0.1s0.4,0.1,0.6,0.2s0.3,0.2,0.4,0.4c0.1,0.2,0.1,0.4,0.1,0.6
		c0,0.2,0,0.4-0.1,0.5c-0.1,0.2-0.2,0.3-0.3,0.4s-0.3,0.2-0.4,0.3S44.7,4,44.5,4L46,6.4h-0.6L44,4h-0.9V6.4z M43.1,3.6H44
		c0.4,0,0.7-0.1,1-0.2s0.3-0.4,0.3-0.7c0-0.2,0-0.3-0.1-0.4S45.1,2,45,2c-0.1-0.1-0.2-0.1-0.4-0.2S44.2,1.8,44,1.8h-0.9V3.6z"/>
	<path class="st3" d="M49.2,6h2.7v0.5h-3.3V1.3h3.2v0.5h-2.7v1.8h2.5V4h-2.5V6z"/>
	<path class="st3" d="M59.7,6.4h-0.5V1.8h-1.7V1.3h3.9v0.5h-1.7V6.4z"/>
	<path class="st3" d="M68.7,3.9c0,0.4-0.1,0.7-0.2,1.1S68.2,5.5,68,5.8c-0.2,0.2-0.5,0.4-0.8,0.6s-0.7,0.2-1.1,0.2S65.3,6.5,65,6.3
		S64.4,6,64.2,5.8c-0.2-0.2-0.4-0.5-0.6-0.8c-0.1-0.3-0.2-0.7-0.2-1.1c0-0.4,0.1-0.7,0.2-1.1c0.1-0.3,0.3-0.6,0.6-0.8
		s0.5-0.4,0.8-0.6s0.7-0.2,1.1-0.2s0.7,0.1,1.1,0.2s0.6,0.3,0.8,0.6s0.4,0.5,0.6,0.8S68.7,3.5,68.7,3.9z M68.2,3.9
		c0-0.3,0-0.6-0.1-0.9c-0.1-0.3-0.2-0.5-0.4-0.7c-0.2-0.2-0.4-0.4-0.7-0.5c-0.3-0.1-0.6-0.2-0.9-0.2c-0.3,0-0.6,0.1-0.9,0.2
		c-0.3,0.1-0.5,0.3-0.7,0.5c-0.2,0.2-0.3,0.4-0.4,0.7C64,3.3,64,3.6,64,3.9s0,0.6,0.1,0.9c0.1,0.3,0.2,0.5,0.4,0.7
		c0.2,0.2,0.4,0.4,0.7,0.5c0.3,0.1,0.6,0.2,0.9,0.2c0.3,0,0.6-0.1,0.9-0.2s0.5-0.3,0.7-0.5C67.8,5.2,67.9,5,68,4.7
		C68.1,4.4,68.2,4.2,68.2,3.9z"/>
	<path class="st3" d="M75.6,3.6L75.6,3.6l2.4-2.3h0.7l-2.6,2.3l2.7,2.8h-0.8L75.6,3.6L75.6,3.6v2.8h-0.5V1.3h0.5V3.6z"/>
	<path class="st3" d="M85,5.7L85,5.7l0-4.4h0.5v5.1h-0.7l-3-4.4h0v4.4h-0.5V1.3H82L85,5.7z"/>
	<path class="st3" d="M93.7,3.9c0,0.4-0.1,0.7-0.2,1.1s-0.3,0.6-0.6,0.8c-0.2,0.2-0.5,0.4-0.8,0.6c-0.3,0.1-0.7,0.2-1.1,0.2
		S90.3,6.5,90,6.3c-0.3-0.1-0.6-0.3-0.8-0.6c-0.2-0.2-0.4-0.5-0.6-0.8c-0.1-0.3-0.2-0.7-0.2-1.1c0-0.4,0.1-0.7,0.2-1.1
		c0.1-0.3,0.3-0.6,0.6-0.8s0.5-0.4,0.8-0.6c0.3-0.1,0.7-0.2,1.1-0.2s0.7,0.1,1.1,0.2c0.3,0.1,0.6,0.3,0.8,0.6s0.4,0.5,0.6,0.8
		S93.7,3.5,93.7,3.9z M93.1,3.9c0-0.3,0-0.6-0.1-0.9c-0.1-0.3-0.2-0.5-0.4-0.7c-0.2-0.2-0.4-0.4-0.7-0.5c-0.3-0.1-0.6-0.2-0.9-0.2
		c-0.3,0-0.6,0.1-0.9,0.2c-0.3,0.1-0.5,0.3-0.7,0.5C89.3,2.5,89.1,2.7,89,3c-0.1,0.3-0.1,0.6-0.1,0.9s0,0.6,0.1,0.9
		c0.1,0.3,0.2,0.5,0.4,0.7s0.4,0.4,0.7,0.5s0.6,0.2,0.9,0.2c0.3,0,0.6-0.1,0.9-0.2c0.3-0.1,0.5-0.3,0.7-0.5S92.9,5,93,4.7
		C93.1,4.4,93.1,4.2,93.1,3.9z"/>
	<path class="st3" d="M97.7,5.7L97.7,5.7L99,1.3h0.6l1.3,4.4h0l1.2-4.4h0.5l-1.5,5.1h-0.6L99.3,2h0L98,6.4h-0.6l-1.5-5.1h0.5
		L97.7,5.7z"/>
	<path class="st3" d="M111.2,5.5L111.2,5.5l1.7-4.2h0.8v5.1h-0.5V2h0l-1.8,4.4h-0.3L109.3,2h0v4.4h-0.5V1.3h0.8L111.2,5.5z"/>
	<path class="st3" d="M121.9,3.9c0,0.4-0.1,0.7-0.2,1.1s-0.3,0.6-0.6,0.8c-0.2,0.2-0.5,0.4-0.8,0.6c-0.3,0.1-0.7,0.2-1.1,0.2
		s-0.7-0.1-1.1-0.2c-0.3-0.1-0.6-0.3-0.8-0.6c-0.2-0.2-0.4-0.5-0.6-0.8c-0.1-0.3-0.2-0.7-0.2-1.1c0-0.4,0.1-0.7,0.2-1.1
		c0.1-0.3,0.3-0.6,0.6-0.8s0.5-0.4,0.8-0.6c0.3-0.1,0.7-0.2,1.1-0.2s0.7,0.1,1.1,0.2c0.3,0.1,0.6,0.3,0.8,0.6s0.4,0.5,0.6,0.8
		S121.9,3.5,121.9,3.9z M121.4,3.9c0-0.3,0-0.6-0.1-0.9c-0.1-0.3-0.2-0.5-0.4-0.7c-0.2-0.2-0.4-0.4-0.7-0.5
		c-0.3-0.1-0.6-0.2-0.9-0.2c-0.3,0-0.6,0.1-0.9,0.2c-0.3,0.1-0.5,0.3-0.7,0.5c-0.2,0.2-0.3,0.4-0.4,0.7c-0.1,0.3-0.1,0.6-0.1,0.9
		s0,0.6,0.1,0.9c0.1,0.3,0.2,0.5,0.4,0.7s0.4,0.4,0.7,0.5s0.6,0.2,0.9,0.2c0.3,0,0.6-0.1,0.9-0.2c0.3-0.1,0.5-0.3,0.7-0.5
		s0.3-0.4,0.4-0.7C121.3,4.4,121.4,4.2,121.4,3.9z"/>
	<path class="st3" d="M125.3,6.4h-0.5V1.3h1.5c0.2,0,0.5,0,0.7,0.1s0.4,0.1,0.6,0.2s0.3,0.2,0.4,0.4s0.1,0.4,0.1,0.6
		c0,0.2,0,0.4-0.1,0.5c-0.1,0.2-0.2,0.3-0.3,0.4s-0.3,0.2-0.4,0.3C127,3.9,126.9,4,126.7,4l1.5,2.4h-0.6L126.1,4h-0.9V6.4z
		 M125.3,3.6h0.9c0.4,0,0.7-0.1,1-0.2s0.3-0.4,0.3-0.7c0-0.2,0-0.3-0.1-0.4S127.2,2,127.1,2s-0.2-0.1-0.4-0.2
		c-0.2,0-0.3-0.1-0.5-0.1h-0.9V3.6z"/>
	<path class="st3" d="M131.3,6h2.7v0.5h-3.3V1.3h3.2v0.5h-2.7v1.8h2.5V4h-2.5V6z"/>
	<path class="st3" d="M137.5,6.1c0,0.1,0,0.2-0.1,0.3c-0.1,0.1-0.2,0.1-0.3,0.1s-0.2,0-0.3-0.1c-0.1-0.1-0.1-0.2-0.1-0.3
		c0-0.1,0-0.2,0.1-0.3c0.1-0.1,0.2-0.1,0.3-0.1s0.2,0,0.3,0.1C137.4,5.9,137.5,6,137.5,6.1z"/>
</g>
</svg>
