<?xml version="1.0" encoding="utf-8"?>
<!-- Generator: Adobe Illustrator 26.0.1, SVG Export Plug-In . SVG Version: 6.00 Build 0)  -->
<svg version="1.1" id="Layer_1" xmlns="http://www.w3.org/2000/svg" xmlns:xlink="http://www.w3.org/1999/xlink" x="0px" y="0px"
	 viewBox="0 0 59.9 98.6" style="enable-background:new 0 0 59.9 98.6;" xml:space="preserve">
<style type="text/css">
	.st0{fill:#FFFFFF;}
</style>
<g>
	<path class="st0" d="M8.6,70.5h25.3v2.7H8.6V70.5z M2.4,2.3l0,2.7L34,5L16.5,19.7V24l25.3,0l0-2.8l-22.4,0L41.5,2.3L2.4,2.3z
		 M24.9,26.3h2.9v21.5L2.5,25.1v-3.5h11.7v9.9l10.7,10V26.3z M11.8,29.2v-4.9H6L11.8,29.2z M3.4,55.4v41.8H6V67.5h21.7v-2.7H6v-9.4
		L3.4,55.4z M9.3,40.7v21.6h2.6v-9.4h21.7v-2.7H11.9v-9.4L9.3,40.7z M45.4,77.1c-1.1,0.1-1.9-0.1-2.6-0.7c-1.3-1.1-1.3-3.2-1.4-3.6
		v-4l-0.9,0c0,0-0.1,0-0.1,0c-0.7,0.1-1.3,0.3-1.6,0.7c-0.3,0.3-0.5,0.8-0.6,1.3c-0.1,0.8-0.1,1.5,0.2,2c0.3,0.7,0.7,1.1,1.3,1.3
		c0.5,0.1,0.6,0.4,0.6,0.9l0,0.2c0,0.2,0,0.4,0,0.6c0,0.3-0.1,0.5-0.3,0.6c-0.1,0.1-0.3,0.2-0.6,0.1c-1.3-0.3-2.3-1-2.9-2.1
		c-0.9-1.8-1-3.7-0.2-5.5c0.6-1.3,1.7-2.2,3.4-2.5c0.2,0,0.4-0.1,0.7-0.1l0,0c2.6-0.2,4,0,4.1,0c0.2,0,0.5,0,0.7,0.1
		c1.7,0.3,2.8,1.1,3.4,2.4c0.4,0.9,0.6,1.9,0.6,2.9c0,1.1-0.3,2.2-0.8,3.1c-0.7,1.2-1.6,1.9-2.9,2.1C45.6,77,45.5,77,45.4,77.1z
		 M45.1,74.8L45.1,74.8c0.1,0,1.2-0.2,1.7-1.8c0.1-0.3,0.2-0.7,0.2-1.1c0-0.3,0-0.7-0.1-1c-0.1-0.5-0.3-0.9-0.6-1.3
		c-0.4-0.4-0.9-0.6-1.6-0.7c0,0-0.1,0-0.1,0l0,0c-0.2,0-0.5,0-0.7,0l-0.2,0v3.5c0,1.2,0.3,2,0.7,2.3C44.7,74.9,45,74.8,45.1,74.8z
		 M35.4,34.2c-0.4-0.9-0.6-1.9-0.6-2.9c0-1.1,0.3-2.2,0.8-3.1c0.7-1.2,1.6-1.9,2.9-2.1c0.1,0,0.1,0,0.2,0c1.1-0.1,1.9,0.1,2.6,0.7
		c1.4,1.2,1.3,3.6,1.4,3.6v4l0.9,0c0,0,0.1,0,0.1,0c0.7-0.1,1.3-0.3,1.6-0.7c0.3-0.3,0.5-0.8,0.6-1.3c0.1-0.8,0.1-1.5-0.2-2
		c-0.3-0.7-0.7-1.1-1.3-1.3c-0.5-0.1-0.6-0.4-0.6-0.9l0-0.2c0-0.2,0-0.4,0-0.6v0c0-0.3,0.1-0.5,0.3-0.6c0.1-0.1,0.3-0.2,0.6-0.1
		c1.3,0.3,2.3,1,2.9,2.1c0.9,1.8,1,3.7,0.2,5.5c-0.6,1.3-1.7,2.2-3.4,2.4c-0.2,0-0.4,0.1-0.7,0.1c-2.6,0.2-4,0-4.1,0
		c-0.2,0-0.5,0-0.7-0.1C37.1,36.4,36,35.5,35.4,34.2z M40.2,34.3l0.2,0v-3.5c0-1.2-0.3-2-0.7-2.3c-0.3-0.2-0.6-0.2-0.7-0.1l-0.1,0
		c0,0-1.1,0.2-1.6,1.8c-0.2,0.6-0.2,1.3-0.1,2.1c0.1,0.5,0.3,0.9,0.6,1.3c0.4,0.4,0.9,0.6,1.6,0.7c0,0,0.1,0,0.1,0l0,0
		C39.8,34.3,40,34.3,40.2,34.3z M41.2,42L41.2,42c0.2,0,0.5,0,0.7,0c0.3,0,0.5,0,0.7,0c0.8,0,1.6,0.2,2.2,0.5
		c0.7,0.3,1.2,0.6,1.7,1.1c0.5,0.5,0.8,1,1.1,1.6c0.3,0.6,0.4,1.3,0.4,2c0,0.9-0.2,1.7-0.5,2.3c-0.1,0.2-0.2,0.4-0.3,0.5l-0.3,0.4
		h4.2c0.2,0,0.4,0.1,0.6,0.2c0.2,0.2,0.2,0.4,0.2,0.6V52c0,0.2-0.1,0.4-0.2,0.6c-0.2,0.2-0.4,0.2-0.6,0.2l-11.5,0
		c-0.1,0-2.6-0.2-3.7-3.3c-0.2-0.6-0.3-1.5-0.3-2.4c0-0.7,0.1-1.4,0.4-2c0.3-0.6,0.6-1.2,1.1-1.6c0.5-0.5,1.1-0.8,1.7-1.1
		C39.6,42.2,40.4,42,41.2,42z M42.5,44.4c-0.4,0-0.8,0-1.2,0c-1,0.1-1.8,0.3-2.4,0.9c-0.6,0.5-0.8,1.2-0.8,2.1
		c0,0.9,0.3,1.5,0.8,2.1c0.5,0.5,1.2,0.8,2.1,0.9c0.2,0,0.5,0,0.9,0c0.4,0,0.6,0,0.8,0c1,0,1.7-0.3,2.3-0.9c0.5-0.5,0.8-1.2,0.8-2.1
		c0-0.9-0.3-1.6-0.8-2.1C44.3,44.8,43.5,44.5,42.5,44.4L42.5,44.4z M41.2,54.1L41.2,54.1c0.2,0,0.5,0,0.7,0c0.3,0,0.5,0,0.7,0
		c0.8,0,1.6,0.2,2.2,0.5c0.7,0.3,1.2,0.6,1.7,1.1c0.5,0.5,0.8,1,1.1,1.6c0.3,0.6,0.4,1.3,0.4,2c0,0.9-0.2,1.7-0.5,2.3
		c-0.1,0.2-0.2,0.4-0.3,0.5l-0.3,0.4h4.2c0.2,0,0.4,0.1,0.6,0.2c0.2,0.2,0.2,0.4,0.2,0.6v0.8c0,0.2-0.1,0.4-0.2,0.6
		c-0.2,0.2-0.4,0.2-0.6,0.2l-11.5,0c-0.1,0-2.6-0.2-3.7-3.3c-0.2-0.6-0.3-1.5-0.3-2.4c0-0.7,0.1-1.4,0.4-2c0.3-0.6,0.6-1.2,1.1-1.6
		c0.5-0.5,1.1-0.8,1.7-1.1C39.6,54.4,40.4,54.2,41.2,54.1z M42.5,56.6c-0.4,0-0.8,0-1.2,0c-1,0.1-1.8,0.3-2.4,0.9
		c-0.6,0.5-0.8,1.2-0.8,2.1c0,0.9,0.3,1.5,0.8,2.1c0.5,0.5,1.2,0.8,2.1,0.9c0.2,0,0.5,0,0.9,0c0.4,0,0.6,0,0.8,0
		c1,0,1.7-0.3,2.3-0.9c0.5-0.5,0.8-1.2,0.8-2.1c0-0.9-0.3-1.6-0.8-2.1C44.3,56.9,43.5,56.7,42.5,56.6L42.5,56.6z M31.8,39v0.8
		c0,0.2,0.1,0.4,0.2,0.6c0.2,0.2,0.4,0.2,0.6,0.2H47c0.2,0,0.4-0.1,0.6-0.2c0.2-0.2,0.2-0.4,0.2-0.6V39c0-0.2-0.1-0.4-0.2-0.6
		c-0.2-0.2-0.4-0.2-0.6-0.2H32.6c-0.2,0-0.4,0.1-0.6,0.2C31.9,38.6,31.8,38.8,31.8,39z M8.7,96.9V78.4l11.1,9.2l14.3-12.2v21.4H8.7z
		 M31.1,94.1V81.7l-11.2,9.6l-8.1-6.7v9.5H31.1z"/>
	<g>
		<path class="st0" d="M57.1,80.9c0,0,0.1,0,0.1,0c0.4,0,0.6,0.1,0.8,0.2c0.1,0.1,0.3,0.2,0.4,0.4c0.1,0.2,0.2,0.5,0.2,0.9
			c0,0.2,0,0.4,0,0.6v0h-3.1v-0.1c0-0.1,0-0.2,0-0.3c0-0.1,0-0.2,0-0.3c0-0.4,0.1-0.7,0.2-0.9c0.1-0.2,0.2-0.3,0.4-0.4
			c0.2-0.1,0.5-0.2,0.9-0.2C57,80.9,57,80.9,57.1,80.9z M57.1,81.1C57,81.1,57,81.1,57.1,81.1c-0.4,0-0.7,0.1-0.9,0.2
			c-0.1,0.1-0.2,0.2-0.3,0.3c-0.1,0.2-0.2,0.4-0.2,0.7c0,0.1,0,0.3,0,0.5h1.7h1c0-0.2,0-0.4,0-0.5c0-0.3-0.1-0.5-0.2-0.7
			c-0.1-0.2-0.2-0.3-0.3-0.3C57.8,81.2,57.5,81.1,57.1,81.1C57.1,81.1,57.1,81.1,57.1,81.1z"/>
		<path class="st0" d="M55.5,78.6h3.1v0.2h-3.1V78.6z"/>
		<path class="st0" d="M57.2,74.3h1.4l0,0.1c0,0.2,0,0.4,0,0.6c0,0.4-0.1,0.6-0.2,0.8c-0.1,0.2-0.2,0.3-0.4,0.4
			c-0.2,0.1-0.5,0.2-0.9,0.2v0c0,0,0,0-0.1,0c0,0,0,0-0.1,0h-0.1v0c-0.4,0-0.6-0.1-0.9-0.2c-0.1-0.1-0.2-0.2-0.4-0.4
			c-0.1-0.2-0.2-0.5-0.2-0.8c0-0.1,0-0.3,0-0.6h0.2c0,0.3,0,0.5,0,0.6c0,0.3,0.1,0.5,0.2,0.6c0.1,0.1,0.2,0.3,0.3,0.3
			c0.2,0.1,0.4,0.2,0.8,0.2c0,0,0,0,0.1,0s0.1,0,0.1,0c0.3,0,0.6-0.1,0.8-0.2c0.1-0.1,0.2-0.2,0.3-0.3c0.1-0.2,0.2-0.4,0.2-0.6
			c0-0.2,0-0.4,0-0.6h-1.2v0.8H57v-1H57.2z"/>
		<path class="st0" d="M55.5,71.9h3.1v0.2h-3.1V71.9z"/>
		<path class="st0" d="M55.7,68.1v0.8h2.9V69h-2.9v0.8h-0.2v-1.8H55.7z"/>
		<path class="st0" d="M57.5,64.5v1.2l1.1,0.4v0.2l-3-1.1V65l3-1.1v0.2L57.5,64.5z M57.3,64.6l-1.5,0.5l1.5,0.5V64.6z"/>
		<path class="st0" d="M58.4,60.4h0.2v1.5h-3v-0.2h1.9h1V60.4z"/>
		<path class="st0" d="M56.2,54.8c0.2,0.1,0.4,0.2,0.8,0.2c0,0,0,0,0.1,0c0.1,0,0.1,0,0.1,0c0.3,0,0.6-0.1,0.8-0.2
			c0.1-0.1,0.2-0.2,0.3-0.3c0.1-0.1,0.2-0.4,0.2-0.6c0-0.1,0-0.3,0-0.6h0.2c0,0.2,0,0.4,0,0.5c0,0.4-0.1,0.6-0.2,0.8
			c-0.1,0.2-0.2,0.3-0.4,0.4c-0.2,0.1-0.5,0.2-0.9,0.2v0c0,0,0,0-0.1,0c0,0,0,0-0.1,0h-0.1v0c-0.4,0-0.7-0.1-0.9-0.2
			c-0.1-0.1-0.3-0.2-0.4-0.4c-0.1-0.2-0.2-0.5-0.2-0.8c0-0.1,0-0.3,0-0.5h0.2c0,0.3,0,0.5,0,0.6c0,0.3,0.1,0.5,0.2,0.6
			C56,54.7,56.1,54.8,56.2,54.8z"/>
		<path class="st0" d="M58.4,49.7h0.2v1.5h-3V51h1.9h1V49.7z"/>
		<path class="st0" d="M56,45.5c0.3-0.3,0.7-0.4,1.1-0.4c0.4,0,0.8,0.1,1.1,0.4c0.3,0.3,0.5,0.6,0.5,1c0,0.4-0.2,0.7-0.5,0.9
			c-0.3,0.2-0.7,0.4-1.1,0.4c-0.4,0-0.8-0.1-1.1-0.4c-0.3-0.2-0.5-0.6-0.5-0.9C55.5,46.1,55.7,45.8,56,45.5z M58,45.7
			c-0.3-0.2-0.6-0.3-1-0.3c-0.4,0-0.7,0.1-1,0.3s-0.4,0.5-0.4,0.8c0,0.3,0.1,0.6,0.4,0.8c0.3,0.2,0.6,0.3,1,0.3c0.4,0,0.7-0.1,1-0.3
			c0.3-0.2,0.4-0.5,0.4-0.8C58.4,46.2,58.3,45.9,58,45.7z"/>
		<path class="st0" d="M55.7,41.5v0.8h2.9v0.2h-2.9v0.8h-0.2v-1.8H55.7z"/>
		<path class="st0" d="M55.5,37.5h3v0.2H57v1.5h1.6v0.2h-3v-0.2h1.3v-1.5h-1.3V37.5z"/>
		<path class="st0" d="M55.5,35.1h3.1v0.2h-3.1V35.1z"/>
		<path class="st0" d="M55.5,30.7l3,0v0.2v0l-2.7,1.7h2.7v0.2h-3v-0.2l2.7-1.7h-2.7V30.7z"/>
		<path class="st0" d="M57.2,26.4h1.4l0,0.1c0,0.2,0,0.4,0,0.6c0,0.4-0.1,0.6-0.2,0.8c-0.1,0.2-0.2,0.3-0.4,0.4
			c-0.2,0.1-0.5,0.2-0.9,0.2v0c0,0,0,0-0.1,0c0,0,0,0-0.1,0h-0.1v0c-0.4,0-0.6-0.1-0.9-0.2c-0.1-0.1-0.2-0.2-0.4-0.4
			c-0.1-0.2-0.2-0.5-0.2-0.8c0-0.1,0-0.3,0-0.6h0.2c0,0.3,0,0.5,0,0.6c0,0.3,0.1,0.5,0.2,0.6s0.2,0.3,0.3,0.3
			c0.2,0.1,0.4,0.2,0.8,0.2c0,0,0,0,0.1,0s0.1,0,0.1,0c0.3,0,0.6-0.1,0.8-0.2c0.1-0.1,0.2-0.2,0.3-0.3s0.2-0.4,0.2-0.6
			c0-0.2,0-0.4,0-0.6h-1.2v0.8H57v-1H57.2z"/>
	</g>
</g>
</svg>
